<?xml version="1.0" encoding="utf-8"?>
<!-- Generator: Adobe Illustrator 24.0.3, SVG Export Plug-In . SVG Version: 6.00 Build 0)  -->
<svg version="1.1" id="Layer_1" xmlns="http://www.w3.org/2000/svg" xmlns:xlink="http://www.w3.org/1999/xlink" x="0px" y="0px"
  viewBox="0 0 42 28" style="enable-background:new 0 0 42 28;" xml:space="preserve">
<path fill="#f99e1b" d="M40.68,14c-7.36,0.85-7.55,1.67-0.88,3.9c-7.63-0.17-8.69,0.98-4.88,5.38c-6.52-2.59-8.14-1.91-7.57,3.15
  c-3.62-4.36-4.95-4.21-6.34,0.7c-1.56-4.91-3.05-5.1-7.07-0.87c1.02-5-0.43-5.64-6.84-2.97c4.18-4.15,3.34-4.95-3.96-3.79
  c5.96-3.1,5.56-4.26-1.8-5.49c7.36-1.26,7.78-2.45,1.89-5.61c7.26,1.24,8.09,0.47,3.88-3.67c6.04,2.91,7,2.43,4.54-2.26
  c5.25,3.68,7.25,3.32,9.38-1.58c1.97,4.91,3.84,5.22,8.78,1.37c-2.09,4.79-1,5.31,5.14,2.47c-4.09,4.21-3.19,5.1,4.22,4.17
  C32.98,11.79,33.32,12.87,40.68,14z"/>
</svg>
