<?xml version="1.0" encoding="UTF-8"?>
<svg xmlns="http://www.w3.org/2000/svg" height="150" width="150" viewbox="0 0 200 200" xml:space="preserve">
<path fill="none" d="M5.3,5.3h189.3v189.3H5.3V5.3z" />
<path fill="#0f3b63" d="M154.6,44.9c-1.6-4.7-6-8-11.2-8H56.6c-5.2,0-9.5,3.3-11.2,8L29,92.1v63.1c0,4.3,3.5,7.9,7.9,7.9h7.9c4.3,0,7.9-3.5,7.9-7.9
  v-7.9h94.7v7.9c0,4.3,3.5,7.9,7.9,7.9h7.9c4.3,0,7.9-3.5,7.9-7.9V92.1L154.6,44.9z M56.6,123.7c-6.5,0-11.8-5.3-11.8-11.8
  S50.1,100,56.6,100s11.8,5.3,11.8,11.8S63.2,123.7,56.6,123.7z M143.4,123.7c-6.5,0-11.8-5.3-11.8-11.8s5.3-11.8,11.8-11.8
  c6.5,0,11.8,5.3,11.8,11.8S149.9,123.7,143.4,123.7z M44.8,84.2l11.8-35.5h86.8l11.8,35.5H44.8z" />
</svg>
