<?xml version="1.0" encoding="UTF-8"?>
<svg xmlns="http://www.w3.org/2000/svg" version="1.1" viewBox="0 0 400 400">
  <defs>
    <style>
      .cls-1 {
        fill: none;
      }

      .cls-2 {
        fill: #fff;
      }

      .cls-3 {
        fill: #0f3b63;
      }
    </style>
  </defs>
  <!-- Generator: Adobe Illustrator 28.7.1, SVG Export Plug-In . SVG Version: 1.2.0 Build 142)  -->
  <g>
    <g id="Layer_1">
      <rect class="cls-2" width="400" height="400"/>
      <g>
        <rect class="cls-1" x="42" y="42" width="316" height="316"/>
        <rect class="cls-3" x="251.2" y="186" width="43.4" height="156.1" transform="translate(-106.7 270.3) rotate(-45)"/>
        <path class="cls-3" d="M279.8,172.6c28.1,0,50.7-22.8,50.7-50.7s-2.3-16.2-6-23.1l-39.2,39.2-21.5-21.5,39.2-39.2c-6.9-3.7-14.8-6-23.1-6-28.1,0-50.7,22.8-50.7,50.7s1.2,11.7,3,16.8l-26.8,26.8-26-26,10.2-10.2-20.3-20.5,30.7-30.7c-16.9-16.9-44.5-16.9-61.4,0l-51.4,51.4,20.5,20.5h-41l-10.2,10.2,51.4,51.4,10.2-10.2v-41.1l20.5,20.5,10.2-10.2,25.8,25.8-107.5,107.5,30.7,30.7,165.1-164.9c5.3,1.8,10.9,3,16.9,3Z"/>
      </g>
    </g>
  </g>
</svg>