<?xml version="1.0" encoding="UTF-8"?>
<svg xmlns="http://www.w3.org/2000/svg" version="1.1" viewBox="0 0 400 400">
  <defs>
    <style>
      .cls-1 {
        fill: #fff;
      }

      .cls-2 {
        fill: #0f3b63;
      }
    </style>
  </defs>
  <!-- Generator: Adobe Illustrator 28.7.1, SVG Export Plug-In . SVG Version: 1.2.0 Build 142)  -->
  <g>
    <g id="Layer_1">
      <rect class="cls-1" width="400" height="400"/>
      <g>
        <path class="cls-2" d="M329,188.4h-58.6c-6.4-.1-11.7,5.1-11.7,11.6v105.5c0,6.4,5.3,11.7,11.7,11.7h58.6c6.4,0,11.7-5.3,11.7-11.7v-105.5c0-6.4-5.3-11.6-11.7-11.6h0ZM329,293.8h-58.6v-82.1h58.6v82.1h0Z"/>
        <path class="cls-2" d="M293.8,82.8H82.8c-13,0-23.5,10.4-23.5,23.4v140.7c0,12.9,10.4,23.5,23.5,23.5h82.1v23.5h-23.5v23.5h93.8v-23.5h-23.5v-23.5h23.5v-23.5H82.8V106.2h211v58.6h23.5v-58.6c0-13-10.6-23.4-23.5-23.4h0Z"/>
        <polygon class="cls-2" points="199.6 164.8 188.3 129.6 176.9 164.8 141.4 164.8 170.3 185.5 159.3 219.6 188.3 198.5 217.2 219.6 206.2 185.5 235.2 164.8 199.6 164.8"/>
      </g>
    </g>
  </g>
</svg>