<?xml version="1.0" encoding="UTF-8"?>
<svg xmlns="http://www.w3.org/2000/svg" version="1.1" viewBox="0 0 500 281">
  <defs>
    <style>
      .cls-1 {
        fill: none;
      }

      .cls-2 {
        fill: #0f3b63;
      }
    </style>
  </defs>
  <!-- Generator: Adobe Illustrator 28.7.1, SVG Export Plug-In . SVG Version: 1.2.0 Build 142)  -->
  <g>
    <g id="Layer_1">
      <path class="cls-1" d="M175,65.5h150v150h-150V65.5Z"/>
      <g>
        <path class="cls-2" d="M379,128.9h-58.6c-6.4-.1-11.7,5.1-11.7,11.6v105.5c0,6.4,5.3,11.7,11.7,11.7h58.6c6.4,0,11.7-5.3,11.7-11.7v-105.5c0-6.4-5.3-11.6-11.7-11.6ZM379,234.3h-58.6v-82.1h58.6v82.1Z"/>
        <path class="cls-2" d="M343.8,23.3h-211c-13,0-23.5,10.4-23.5,23.4v140.7c0,12.9,10.4,23.5,23.5,23.5h82.1v23.5h-23.5v23.5h93.8v-23.5h-23.5v-23.5h23.5v-23.5h-152.4V46.7h211v58.6h23.5v-58.6c0-13-10.6-23.4-23.5-23.4Z"/>
        <polygon class="cls-2" points="249.6 105.3 238.3 70.1 226.9 105.3 191.4 105.3 220.3 126 209.3 160.1 238.3 139 267.2 160.1 256.2 126 285.2 105.3 249.6 105.3"/>
      </g>
    </g>
  </g>
</svg>