<?xml version="1.0" encoding="utf-8"?>
<!-- Generator: Adobe Illustrator 27.6.1, SVG Export Plug-In . SVG Version: 6.00 Build 0)  -->
<svg version="1.1" id="Layer_1" xmlns="http://www.w3.org/2000/svg" xmlns:xlink="http://www.w3.org/1999/xlink" x="0px" y="0px"
	 viewBox="0 0 200 200" style="enable-background:new 0 0 200 200;" xml:space="preserve">
<style type="text/css">
	.st0{fill:none;}
</style>
<path class="st0" d="M12.6,12.6h174.8v174.8H12.6V12.6z"/>
<path d="M158.3,59.9h-29.1V45.4c0-8.1-6.5-14.6-14.6-14.6H85.4c-8.1,0-14.6,6.5-14.6,14.6v14.6H41.7c-8.1,0-14.5,6.5-14.5,14.6
	l-0.1,80.1c0,8.1,6.5,14.6,14.6,14.6h116.6c8.1,0,14.6-6.5,14.6-14.6V74.5C172.9,66.4,166.4,59.9,158.3,59.9z M114.6,59.9H85.4V45.4
	h29.1V59.9z"/>
</svg>
