<?xml version="1.0" encoding="utf-8"?>
<!-- Generator: Adobe Illustrator 27.6.1, SVG Export Plug-In . SVG Version: 6.00 Build 0)  -->
<svg version="1.1" id="Layer_1" xmlns="http://www.w3.org/2000/svg" xmlns:xlink="http://www.w3.org/1999/xlink" x="0px" y="0px"
	 viewBox="0 0 200 200" style="enable-background:new 0 0 200 200;" xml:space="preserve">
<style type="text/css">
	.st0{fill:none;}
</style>
<g>
	<rect x="10.5" y="10.5" class="st0" width="179" height="179"/>
</g>
<g>
	<g>
		<rect x="129" y="92" transform="matrix(0.7071 -0.7071 0.7071 0.7071 -54.933 139.8479)" width="24.6" height="88.4"/>
		<path d="M145.2,84.5c15.9,0,28.7-12.9,28.7-28.7c0-4.8-1.3-9.2-3.4-13.1l-22.2,22.2l-12.2-12.2l22.2-22.2
			c-3.9-2.1-8.4-3.4-13.1-3.4c-15.9,0-28.7,12.9-28.7,28.7c0,3.4,0.7,6.6,1.7,9.5L103,80.5L88.3,65.8l5.8-5.8L82.6,48.4L100,31
			c-9.6-9.6-25.2-9.6-34.8,0L36.1,60.1l11.6,11.6H24.5l-5.8,5.8l29.1,29.1l5.8-5.8V77.5l11.6,11.6l5.8-5.8l14.6,14.6l-60.9,60.9
			l17.4,17.4l93.5-93.4C138.6,83.8,141.8,84.5,145.2,84.5z"/>
	</g>
</g>
</svg>
